<?xml version="1.0" encoding="utf-8"?>
<!-- Generator: Adobe Illustrator 22.0.1, SVG Export Plug-In . SVG Version: 6.00 Build 0)  -->
<svg version="1.1" id="Layer_1" xmlns="http://www.w3.org/2000/svg" xmlns:xlink="http://www.w3.org/1999/xlink" x="0px" y="0px"
	 viewBox="0 0 260 191" style="enable-background:new 0 0 260 191;" xml:space="preserve">
<style type="text/css">
	.st0{opacity:0.2;}
	.st1{opacity:0.4;fill:#3369E7;enable-background:new    ;}
	.st2{opacity:0.6;fill:#3369E7;enable-background:new    ;}
	.st3{opacity:0.9;fill:#3369E7;enable-background:new    ;}
	.st4{opacity:0.2;fill:#3369E7;enable-background:new    ;}
</style>
<g transform="rotate(-180 129.707 95.416)" class="st0">
	<path class="st1" d="M0,96h78.4c8.8,0,16,7.2,16,16l0,0c0,8.8-7.2,16-16,16H0V96z"/>
	<path class="st2" d="M0,158h25.8c8.8,0,16,7.2,16,16l0,0c0,8.8-7.2,16-16,16H0V158z"/>
	<path class="st3" d="M0,64h147.3c8.8,0,16,7.2,16,16l0,0c0,8.8-7.2,16-16,16H0V64z"/>
	<path class="st2" d="M0,32h242.8c8.8,0,16,7.2,16,16l0,0c0,8.8-7.2,16-16,16H0V32z"/>
	<path class="st4" d="M0,0h188.9c8.8,0,16,7.2,16,16l0,0c0,8.8-7.2,16-16,16H0V0z"/>
	<path class="st1" d="M0,0h147c8.8,0,16,7.2,16,16l0,0c0,8.8-7.2,16-16,16H0V0z"/>
</g>
</svg>
