<?xml version="1.0" encoding="utf-8"?>
<!-- Generator: Adobe Illustrator 22.0.1, SVG Export Plug-In . SVG Version: 6.00 Build 0)  -->
<svg version="1.1" id="Layer_1" xmlns="http://www.w3.org/2000/svg" xmlns:xlink="http://www.w3.org/1999/xlink" x="0px" y="0px"
	 viewBox="0 0 1599.7 656" style="enable-background:new 0 0 1599.7 656;" xml:space="preserve">
<style type="text/css">
	.st0{clip-path:url(#SVGID_2_);}
	.st1{fill:url(#a-6_1_);}
	.st2{opacity:0.2;fill:url(#SVGID_3_);enable-background:new    ;}
	.st3{opacity:0.2;fill:url(#SVGID_4_);enable-background:new    ;}
	.st4{opacity:0.2;fill:url(#SVGID_5_);enable-background:new    ;}
	.st5{opacity:0.2;fill:url(#SVGID_6_);enable-background:new    ;}
</style>
<g>
	<defs>
		<rect id="SVGID_1_" width="1599.7" height="656"/>
	</defs>
	<clipPath id="SVGID_2_">
		<use xlink:href="#SVGID_1_"  style="overflow:visible;"/>
	</clipPath>
	<title>bg</title>
	<g class="st0">
		<g>
			<path id="a-5" d="M1599.7,0H0v656h1599.7V0z"/>
		</g>
		
			<linearGradient id="a-6_1_" gradientUnits="userSpaceOnUse" x1="702.7505" y1="25.7163" x2="703.7705" y2="26.7263" gradientTransform="matrix(-1600 0 0 640 1126017.625 -16454.0508)">
			<stop  offset="0" style="stop-color:#3369E7"/>
			<stop  offset="1" style="stop-color:#843CF6"/>
		</linearGradient>
		<path id="a-6" class="st1" d="M1599.7,0H0v656h1599.7V0z"/>
		<g>
			
				<linearGradient id="SVGID_3_" gradientUnits="userSpaceOnUse" x1="701.5333" y1="24.325" x2="702.3333" y2="24.325" gradientTransform="matrix(1569 0 0 80 -1100473.875 -1454.05)">
				<stop  offset="0" style="stop-color:#FFFFFF;stop-opacity:0"/>
				<stop  offset="1" style="stop-color:#FFFFFF"/>
			</linearGradient>
			<path class="st2" d="M0,451h1528.7c22.1,0,40,18.4,40,41l0,0c0,22.7-17.9,41-40,41H0V451z"/>
		</g>
		<g>
			
				<linearGradient id="SVGID_4_" gradientUnits="userSpaceOnUse" x1="701.5735" y1="25.7708" x2="702.3735" y2="25.7708" gradientTransform="matrix(1666 0 0 240 -1168575.625 -5734.0498)">
				<stop  offset="0" style="stop-color:#FFFFFF;stop-opacity:0"/>
				<stop  offset="1" style="stop-color:#FFFFFF"/>
			</linearGradient>
			<path class="st3" d="M0,410h1122.8c22.1,0,40,18.4,40,41l0,0c0,22.6-17.9,41-40,41H0V410z M0,328h1625.7c22.1,0,40,18.4,40,41
				l0,0c0,22.6-17.9,41-40,41H0V328z M0,492h1370.7c22.1,0,40,18.4,40,41l0,0c0,22.6-17.9,41-40,41H0V492z"/>
		</g>
		<g>
			
				<linearGradient id="SVGID_5_" gradientUnits="userSpaceOnUse" x1="701.7126" y1="25.495" x2="702.5126" y2="25.495" gradientTransform="matrix(2112.99 0 0 169.91 -1482783.75 -3711.832)">
				<stop  offset="0" style="stop-color:#FFFFFF;stop-opacity:0"/>
				<stop  offset="1" style="stop-color:#FFFFFF"/>
			</linearGradient>
			<path class="st4" d="M-384.9,533h959.8c22.1,0,40,18.3,40,41l0,0c0,22.6-17.9,41-40,41h-959.8V533z M0,615h1682.7
				c24.8,0,44.9,20.6,44.9,46.1l0,0c0,25.5-20.1,46.1-44.9,46.1H0V615z"/>
		</g>
		<g>
			
				<linearGradient id="SVGID_6_" gradientUnits="userSpaceOnUse" x1="701.136" y1="24.35" x2="701.936" y2="24.35" gradientTransform="matrix(1000 0 0 80 -700990.375 -1374.05)">
				<stop  offset="0" style="stop-color:#FFFFFF;stop-opacity:0"/>
				<stop  offset="1" style="stop-color:#FFFFFF"/>
			</linearGradient>
			<path class="st5" d="M0,533h959.8c22.1,0,40,18.3,40,41l0,0c0,22.6-17.9,41-40,41H0V533z"/>
		</g>
	</g>
</g>
</svg>
