<svg xmlns="http://www.w3.org/2000/svg" width="1000" class="bg-bulletbackground" height="350" viewBox="0 0 1000 350" aria-hidden="true"> <defs> <linearGradient id="a001" x1="98.503%" x2="0%" y1="100%" y2="100%"> <stop stop-color="#2CDD97" offset="0%"></stop> <stop stop-color="#1DC5CE" offset="100%"></stop> </linearGradient> <linearGradient id="b001" x1="100%" x2="0%" y1="100%" y2="100%"> <stop stop-color="#FE6C5F" offset="0%"></stop> <stop stop-color="#FFC168" offset="100%"></stop> </linearGradient> <linearGradient id="c001" x1="100%" x2="0%" y1="100%" y2="100%"> <stop stop-color="#00AEFF" offset="0%"></stop> <stop stop-color="#3369E6" offset="100%"></stop> </linearGradient> </defs> <g fill="none" fill-rule="evenodd"> <g class="animatable-group" fill="url(#c001)" style="opacity: 1; transition: all 400ms ease-in-out 0s;"> <path d="M0 64h984.002c8.835 0 15.998 7.162 15.998 16 0 8.837-7.16 16-15.998 16H0V64z" style="transform: translate(-60px,0); opacity: .33;"></path> <path d="M0 32h984.002c8.835 0 15.998 7.162 15.998 16 0 8.837-7.16 16-15.998 16H0V32z" style="transform: translate(-150px,0); opacity: .1;"></path> <path d="M0 32h317.34c8.833 0 15.993 7.162 15.993 16 0 8.837-7.155 16-15.993 16H0V32zm0 224h984.002c8.835 0 15.998 7.162 15.998 16 0 8.837-7.16 16-15.998 16H0v-32z" style="transform: translate(-40px,0) opacity: .26;"></path> <path d="M0 0h984.002C992.837 0 1000 7.162 1000 16c0 8.837-7.16 16-15.998 16H0V0z" style="transform: translate(-130px,0); opacity: .5"></path> <path d="M0 318h984.002c8.835 0 15.998 7.162 15.998 16 0 8.837-7.16 16-15.998 16H0v-32z" style="transform: translate(-200px,0); opacity: .3"></path> <path d="M0 224h984.002c8.835 0 15.998 7.162 15.998 16 0 8.837-7.16 16-15.998 16H0v-32z" style="transform: translate(-320px,0); opacity: .41"></path> <path d="M0 192h984.002c8.835 0 15.998 7.162 15.998 16 0 8.837-7.16 16-15.998 16H0v-32z" style="transform: translate(-100px,0); opacity: .08"></path> <path d="M0 160h984.002c8.835 0 15.998 7.162 15.998 16 0 8.837-7.16 16-15.998 16H0v-32z" style="transform: translate(-420px,0); opacity: .12"></path> <path d="M0 160h650.66c8.84 0 16.007 7.162 16.007 16 0 8.837-7.162 16-16.006 16H0v-32zm0 96h450.67c8.835 0 15.997 7.162 15.997 16 0 8.837-7.167 16-15.996 16H0v-32z" style="transform: translate(-360px,0); opacity: .21"></path> <path d="M0 128h984.002c8.835 0 15.998 7.162 15.998 16 0 8.837-7.16 16-15.998 16H0v-32z" style="transform: translate(-200px,0); opacity: .22"></path> </g> <g class="animatable-group" fill="url(#b001)" style="opacity: 0; transition: all 400ms ease-in-out 0s;"> <path d="M0 64h984.002c8.835 0 15.998 7.162 15.998 16 0 8.837-7.16 16-15.998 16H0V64z" style="transform: translate(-80px,0); opacity: .12"></path> <path d="M0 32h984.002c8.835 0 15.998 7.162 15.998 16 0 8.837-7.16 16-15.998 16H0V32z" style="transform: translate(-100px,0); opacity: .33"></path> <path d="M0 32h317.34c8.833 0 15.993 7.162 15.993 16 0 8.837-7.155 16-15.993 16H0V32zm0 224h984.002c8.835 0 15.998 7.162 15.998 16 0 8.837-7.16 16-15.998 16H0v-32z" style="transform: translate(-70px,0); opacity: .4"></path> <path d="M0 0h984.002C992.837 0 1000 7.162 1000 16c0 8.837-7.16 16-15.998 16H0V0z" style="transform: translate(-200px,0); opacity: .5"></path> <path d="M0 318h984.002c8.835 0 15.998 7.162 15.998 16 0 8.837-7.16 16-15.998 16H0v-32z" style="transform: translate(-270px,0); opacity: .04"></path> <path d="M0 224h984.002c8.835 0 15.998 7.162 15.998 16 0 8.837-7.16 16-15.998 16H0v-32z" style="transform: translate(-160px,0); opacity: .17"></path> <path d="M0 192h984.002c8.835 0 15.998 7.162 15.998 16 0 8.837-7.16 16-15.998 16H0v-32z" style="transform: translate(-100px,0); opacity: .23"></path> <path d="M0 160h984.002c8.835 0 15.998 7.162 15.998 16 0 8.837-7.16 16-15.998 16H0v-32z" style="transform: translate(-220px,0); opacity: .39"></path> <path d="M0 160h650.66c8.84 0 16.007 7.162 16.007 16 0 8.837-7.162 16-16.006 16H0v-32zm0 96h450.67c8.835 0 15.997 7.162 15.997 16 0 8.837-7.167 16-15.996 16H0v-32z" style="transform: translate(-320px,0); opacity: .4"></path> <path d="M0 128h984.002c8.835 0 15.998 7.162 15.998 16 0 8.837-7.16 16-15.998 16H0v-32z" style="transform: translate(0,0); opacity: .3"></path> </g> <g class="animatable-group" fill="url(#a001)" style="opacity: 0; transition: all 400ms ease-in-out 0s;"> <path d="M0 64h984.002c8.835 0 15.998 7.162 15.998 16 0 8.837-7.16 16-15.998 16H0V64z" style="transform: translate(-140px,0); opacity: .1"></path> <path d="M0 32h984.002c8.835 0 15.998 7.162 15.998 16 0 8.837-7.16 16-15.998 16H0V32z" style="transform: translate(-50px,0); opacity: .24"></path> <path d="M0 32h317.34c8.833 0 15.993 7.162 15.993 16 0 8.837-7.155 16-15.993 16H0V32zm0 224h984.002c8.835 0 15.998 7.162 15.998 16 0 8.837-7.16 16-15.998 16H0v-32z" style="transform: translate(-86px,0); opacity: .37"></path> <path d="M0 0h984.002C992.837 0 1000 7.162 1000 16c0 8.837-7.16 16-15.998 16H0V0z" style="transform: translate(-270px,0); opacity: .2"></path> <path d="M0 318h984.002c8.835 0 15.998 7.162 15.998 16 0 8.837-7.16 16-15.998 16H0v-32z" style="transform: translate(-320px,0); opacity: .39"></path> <path d="M0 224h984.002c8.835 0 15.998 7.162 15.998 16 0 8.837-7.16 16-15.998 16H0v-32z" style="transform: translate(-160px,0); opacity: .1"></path> <path d="M0 192h984.002c8.835 0 15.998 7.162 15.998 16 0 8.837-7.16 16-15.998 16H0v-32z" style="transform: translate(-200px,0); opacity: .03"></path> <path d="M0 160h984.002c8.835 0 15.998 7.162 15.998 16 0 8.837-7.16 16-15.998 16H0v-32z" style="transform: translate(-100px,0); opacity: .13"></path> <path d="M0 160h650.66c8.84 0 16.007 7.162 16.007 16 0 8.837-7.162 16-16.006 16H0v-32zm0 96h450.67c8.835 0 15.997 7.162 15.997 16 0 8.837-7.167 16-15.996 16H0v-32z" style="transform: translate(-120px,0); opacity: .22"></path> <path d="M0 128h984.002c8.835 0 15.998 7.162 15.998 16 0 8.837-7.16 16-15.998 16H0v-32z" style="transform: translate(-155px,0); opacity: .4"></path> </g> </g> </svg>path> </g> </g> </svg>